# xmcd
#
# Track frame offsets: 
#        150
#        13837
#        26455
#        36465
#        49187
#        60305
#        72520
#        84395
#        97447
#        111177
#        121065
#        132672
#        145060
#        157515
#        169217
#        179605
#        191570
#        202770
#        213655
#        223172
#        234085
#        246500
#        258500
#
# Disc length: 3606 seconds
#
# Revision: 1
# Processed by: cddbd v1.5.2PL0 Copyright (c) Steve Scherf et al.
# Submitted via: ExactAudioCopy v0.99pb5
#
DISCID=550e1417
DTITLE=Bobby Bare - The Singles, 1959-1969 Disc 1
DYEAR=1999
DGENRE=Country
TTITLE0=All American Boy
TTITLE1=Shame On Me
TTITLE2=Above And Beyond
TTITLE3=Detroit City
TTITLE4=Heart Of Ice
TTITLE5=Five Hundred Miles Away From Home
TTITLE6=It All Depends On Linda
TTITLE7=Miller's Cave
TTITLE8=Jeannie's Last Kiss
TTITLE9=Have I Stayed Away Too Long
TTITLE10=More Than A Poor Boy Could Give
TTITLE11=Four Strong  Winds
TTITLE12=Take Me Home
TTITLE13=Times Are Gettin' Hard
TTITLE14=One Day At A Time
TTITLE15=It's Alright
TTITLE16=She Picked A Perfect Day
TTITLE17=Just To Satisfy You
TTITLE18=Memories
TTITLE19=Talk Me Some Sense
TTITLE20=Delia's Gone
TTITLE21=In The Same Old Way
TTITLE22=The Long Black Veil
EXTD=
EXTT0=
EXTT1=
EXTT2=
EXTT3=
EXTT4=
EXTT5=
EXTT6=
EXTT7=
EXTT8=
EXTT9=
EXTT10=
EXTT11=
EXTT12=
EXTT13=
EXTT14=
EXTT15=
EXTT16=
EXTT17=
EXTT18=
EXTT19=
EXTT20=
EXTT21=
EXTT22=
PLAYORDER=
